<?xml version="1.0" standalone="no"?>
<!DOCTYPE svg PUBLIC "-//W3C//DTD SVG 20010904//EN"
 "http://www.w3.org/TR/2001/REC-SVG-20010904/DTD/svg10.dtd">
<svg version="1.0" xmlns="http://www.w3.org/2000/svg"
 width="700.000000pt" height="700.000000pt" viewBox="0 0 700.000000 700.000000"
 preserveAspectRatio="xMidYMid meet">
<metadata>
Created by potrace 1.14, written by Peter Selinger 2001-2017
</metadata>
<g transform="translate(0.000000,700.000000) scale(0.100000,-0.100000)"
fill="#000000" stroke="none">
<path d="M4147 6664 c-1 -1 -47 -5 -102 -8 -55 -4 -147 -11 -205 -16 -269 -24
-327 -28 -510 -35 -269 -10 -398 -19 -505 -35 -33 -5 -78 -12 -100 -15 -55 -9
-275 -63 -300 -74 -11 -5 -47 -19 -80 -31 -228 -82 -499 -258 -740 -480 -84
-77 -336 -323 -550 -535 -268 -266 -424 -455 -550 -670 -48 -81 -125 -241
-129 -269 -1 -6 -4 -15 -7 -21 -6 -9 -24 -80 -34 -135 -10 -50 -15 -160 -19
-385 -2 -131 -9 -249 -16 -275 -11 -44 -16 -224 -6 -258 3 -9 7 -39 11 -67 7
-61 45 -213 80 -320 55 -169 114 -409 130 -525 3 -25 8 -52 10 -60 2 -8 7 -37
10 -65 3 -27 7 -61 10 -75 2 -14 7 -50 10 -80 25 -233 58 -444 86 -541 16 -54
14 -50 23 -74 4 -11 17 -45 29 -75 93 -246 297 -481 513 -588 129 -65 334
-136 477 -167 10 -2 26 -6 35 -9 9 -3 28 -7 42 -10 20 -3 120 -26 225 -50 6
-1 37 -8 70 -15 110 -23 206 -51 329 -95 155 -56 281 -92 386 -111 14 -2 43
-9 65 -15 42 -11 249 -46 325 -55 25 -3 63 -8 85 -10 95 -12 115 -14 215 -21
180 -13 463 -8 610 11 19 3 55 7 80 10 558 69 1056 271 1425 579 395 329 679
771 871 1352 46 139 142 498 158 589 3 17 10 55 16 85 14 65 15 74 35 212 25
173 30 260 30 493 0 246 -6 326 -41 530 -8 50 -22 119 -30 155 -9 36 -17 72
-19 80 -20 94 -77 257 -121 345 -70 139 -271 440 -410 613 -58 74 -159 187
-223 251 -71 72 -148 163 -200 237 -211 299 -295 396 -420 482 -34 23 -64 42
-67 42 -3 0 -42 18 -87 39 -229 109 -474 161 -775 165 -78 2 -143 1 -145 0z
m-1124 -828 c-10 -13 -46 -59 -79 -102 -141 -183 -227 -361 -240 -497 l-6 -62
26 30 c142 160 329 327 471 422 124 83 279 153 368 167 20 3 56 10 79 16 24 5
104 8 178 7 l135 -4 240 -81 c132 -45 273 -89 314 -98 l74 -16 -102 -102 c-57
-55 -134 -126 -171 -156 -38 -30 -68 -56 -66 -57 1 -2 52 5 112 16 108 18 308
22 394 6 63 -12 209 -64 250 -90 22 -14 42 -25 45 -25 7 0 55 -33 99 -69 41
-33 246 -243 246 -252 0 -4 -26 -10 -57 -15 -32 -4 -61 -8 -65 -10 -5 -1 -31
-2 -59 -3 l-50 -1 87 -87 c243 -244 355 -485 365 -788 2 -63 0 -67 -18 -61
-10 3 -34 8 -53 11 -127 21 -422 107 -560 165 -154 64 -186 93 -368 335 -149
199 -198 253 -290 327 -67 53 -217 136 -228 125 -2 -2 12 -17 32 -32 36 -27
128 -121 177 -181 38 -45 119 -180 156 -257 34 -73 85 -217 78 -223 -2 -2 -53
29 -113 69 -146 96 -293 171 -504 256 -219 89 -261 108 -328 148 -66 40 -67
43 35 -165 40 -84 78 -165 84 -179 l10 -26 -143 7 c-79 3 -154 8 -168 11 -14
3 -50 8 -80 11 -30 3 -58 8 -61 10 -4 2 -24 6 -45 10 -154 23 -458 142 -576
225 -14 11 -30 19 -35 19 -5 0 -19 10 -31 23 l-22 23 38 36 c20 19 69 59 107
87 39 28 75 56 82 61 7 6 15 10 18 10 4 0 25 13 48 28 67 45 243 128 365 172
235 84 452 123 682 123 128 1 275 -9 290 -18 3 -2 25 -6 48 -10 23 -3 74 -14
112 -24 39 -9 70 -16 70 -14 0 4 -63 30 -140 58 -96 35 -247 71 -340 81 -37 4
-300 4 -335 0 -88 -10 -190 -29 -275 -52 -52 -13 -102 -26 -110 -28 -28 -7
-193 -73 -263 -105 -431 -198 -860 -583 -1178 -1058 -84 -125 -201 -327 -260
-450 -24 -51 -48 -92 -54 -93 -14 0 -122 -54 -174 -85 l-43 -27 7 23 c14 47
154 326 217 434 35 61 71 121 79 135 8 14 16 27 19 30 3 3 27 39 54 80 27 41
79 115 115 164 36 49 64 94 62 100 -22 67 -35 171 -35 291 -1 177 6 229 51
388 l17 57 19 -52 c34 -96 87 -206 118 -247 22 -27 26 -21 33 58 10 94 26 168
60 270 101 300 308 533 600 675 119 58 302 121 359 125 18 1 18 0 0 -23z
m-292 -1462 c85 -64 162 -120 172 -125 9 -5 17 -13 17 -18 0 -13 -180 -70
-275 -86 -143 -25 -291 -15 -422 29 -29 10 -53 22 -53 28 0 27 196 240 290
316 l25 20 46 -24 c25 -14 115 -77 200 -140z m115 -848 c15 -4 32 -23 48 -54
23 -45 75 -166 80 -187 2 -5 8 -23 15 -39 6 -16 9 -38 5 -49 -10 -33 -222
-237 -324 -312 -162 -120 -361 -237 -505 -297 -22 -9 -60 -26 -85 -36 -47 -20
-194 -71 -220 -77 -8 -1 -40 -10 -70 -18 -30 -9 -72 -18 -94 -22 -21 -3 -41
-7 -45 -9 -9 -6 -139 -19 -179 -19 -44 1 -63 21 -110 112 -49 93 -83 200 -76
238 22 124 276 352 565 506 237 126 591 242 809 264 30 3 56 6 58 8 4 4 103
-3 128 -9z m2795 -186 c53 -13 112 -58 136 -103 28 -55 9 -188 -49 -341 l-30
-78 -16 31 c-21 45 -86 97 -151 123 -44 17 -78 22 -157 22 l-100 1 42 87 c56
113 121 220 142 233 51 30 119 40 183 25z m-2591 -369 c0 -11 87 -127 135
-180 26 -29 132 -124 191 -171 67 -54 251 -147 359 -181 176 -57 281 -73 475
-72 365 2 715 144 943 382 40 42 81 89 93 104 18 26 25 29 81 28 66 0 129 -14
178 -38 43 -22 101 -87 115 -127 10 -33 8 -43 -46 -152 -172 -350 -431 -671
-724 -895 -163 -125 -313 -212 -515 -300 -105 -45 -287 -102 -400 -125 -304
-61 -585 -64 -890 -9 -299 55 -610 188 -875 376 -117 82 -284 237 -379 349
-25 30 -54 64 -64 74 -27 31 -120 167 -116 171 2 2 22 6 43 9 104 17 350 88
491 143 240 94 477 231 655 380 36 30 170 165 203 206 31 36 47 46 47 28z"/>
<path d="M2580 3440 c-148 -25 -429 -123 -602 -210 -245 -123 -561 -373 -541
-428 17 -43 339 54 656 197 166 75 401 219 530 326 126 105 113 141 -43 115z"/>
<path d="M5648 3059 c-18 -10 -24 -55 -10 -75 12 -18 44 -25 58 -13 20 17 17
44 -8 73 -18 20 -27 23 -40 15z"/>
</g>
</svg>
